<svg width="848" height="802" viewBox="0 0 848 802" fill="none" xmlns="http://www.w3.org/2000/svg">
<path d="M442.328 343.284L389.907 345.353C389.907 345.353 438.847 379.125 450.382 401.487C482.514 463.781 489.017 481.118 511.214 546.403C529.167 599.207 531.47 643.341 544.419 698.337L555.305 744.572C557.367 753.333 562.536 754.376 568.476 756.881C576.523 760.275 596.535 762.603 596.535 762.603C596.535 762.603 574.12 659.945 557.688 597.615C537.038 519.289 525.174 474.797 491.38 401.08C479.043 374.169 442.328 343.284 442.328 343.284Z" fill="#6464FB"/>
<path d="M481.586 575.466C464.972 574.479 441.016 562.417 441.016 562.417L476.554 429.741L529.282 564.236C529.282 564.236 500.688 576.601 481.586 575.466Z" fill="#444349"/>
<path d="M695.356 711.076C676.768 739.328 661.607 748.816 641.826 758.61C622.044 768.405 593.27 761.824 593.27 761.824C593.27 761.824 563.807 617.73 547.32 566.667C514.668 465.544 514.717 432.563 463.231 366.608C446.787 345.543 424.872 345.822 398.152 345.46C376.284 345.164 360.618 349.674 348.509 357.148C336.4 364.623 313.957 382.748 290.024 394.548C266.091 406.347 212.009 405.725 212.009 405.725C212.009 405.725 282.537 340.23 284.254 293.686C285.993 246.531 289.883 219.418 262.25 182.777C246.381 161.735 197.887 162.488 197.887 162.488C197.887 162.488 312.624 113.11 386.003 90.9705C452.179 71.004 516.664 52.5008 558.292 50.4047C599.92 48.3086 624.577 54.2256 650.514 82.1128C677.774 111.424 688.849 144.71 674.005 181.885C664.264 206.28 634.305 221.639 620.276 243.847C605.438 267.336 607.042 269.722 603.049 297.216C598.266 330.149 607.16 350.048 617.777 381.586C638.285 442.507 642.488 433.813 666.811 511.301C689.902 584.863 713.945 682.825 695.356 711.076Z" fill="#4C4CF1"/>
<path d="M112.224 210.237C104.635 221.103 100.215 245.077 100.215 245.077L125.638 344.324C125.638 344.324 143.711 381.279 165.321 392.656C184.369 402.683 194.817 409.181 215.789 404.328C257.188 394.749 285.758 350.336 296.654 309.264C308.758 263.645 295.599 220.164 266.86 182.725C255.464 167.877 220.345 164.169 206.534 159.944C192.722 155.719 119.812 199.371 112.224 210.237Z" fill="#3737EA"/>
<path d="M745.931 31.4011L492.284 123.484L532.599 155.086L767.179 64.9236C767.179 64.9236 766.388 53.2646 762.94 46.916C758.648 39.0157 745.931 31.4011 745.931 31.4011Z" fill="#D1CED1"/>
<path d="M573.218 111.62C563.27 93.7346 532.559 78.5581 532.559 78.5581L619.19 58.1606C619.19 58.1606 656.858 78.6111 667.695 102.73C670.817 109.676 669.071 108.57 669.071 108.57L582.042 149.095C582.042 149.095 580.526 124.759 573.218 111.62Z" fill="#4C4CF1"/>
<path d="M90.8586 366.017C134.538 369.84 179.645 347.356 179.645 347.356C179.645 347.356 190.903 316.598 183.509 293.854C176.903 273.531 151.017 246.538 151.017 246.538C151.017 246.538 131.314 249.25 102.732 260.25C74.1494 271.249 47.9008 309.136 47.9008 309.136C47.9008 309.136 38.5093 328.502 41.7157 341.859C45.6361 358.19 78.0341 364.895 90.8586 366.017Z" fill="#323439"/>
<ellipse cx="55.9914" cy="333.453" rx="16.0405" ry="24.6336" transform="rotate(-15.8526 55.9914 333.453)" fill="#535762"/>
<path d="M445.483 563.934L477.842 424.301C477.842 424.301 469.658 406.185 461.977 396.189C454.221 386.095 438.64 373.432 438.64 373.432L390.566 535.77C390.566 535.77 401.249 567.068 418.228 570.351C428.964 572.427 445.483 563.934 445.483 563.934Z" fill="#5B5A5F"/>
<ellipse cx="52.9027" cy="334.295" rx="3.5" ry="7" transform="rotate(-13.2491 52.9027 334.295)" fill="#D9D9D9"/>
</svg>
