<svg width="215" height="259" viewBox="0 0 215 259" fill="none" xmlns="http://www.w3.org/2000/svg">
<path d="M160.561 97.5706C157.089 102.683 149.152 108.535 149.152 108.535L174.642 140.817L196.634 112.342C205.222 101.223 206.071 85.5612 206.071 85.5612C206.071 85.5612 193.305 90.4192 184.963 89.5382C177.325 88.7315 166.637 82.399 166.637 82.399C166.637 82.399 164.147 92.2907 160.561 97.5706Z" fill="#01BCC5"/>
<path d="M51.1686 59.0967C47.9848 66.287 50.3386 79.2761 50.3386 79.2761C50.3386 79.2761 40.5078 82.3578 34.0918 82.0225C26.8798 81.6455 16.4019 76.5547 16.4019 76.5547C16.4019 76.5547 16.6269 51.9357 24.1336 39.1123C31.6772 26.2259 39.0479 19.2267 52.9118 14.4254C76.8226 6.1447 92.803 7.4033 118.025 9.38981L118.47 9.42481C144.15 11.447 162.849 12.9836 182.614 28.6057C193.802 37.4482 198.159 43.341 202.392 57.1863C206.205 69.6586 203.573 88.3248 203.573 88.3248L188.696 90.3711L169.897 85.6243L171.123 70.3357C171.123 70.3357 166.999 56.2377 156.118 51.046C145.237 45.8543 129.496 44.5343 112.083 43.1957C98.1698 42.126 89.682 39.0178 76.3439 43.2991C65.3548 46.8264 55.9369 48.3281 51.1686 59.0967Z" fill="#2B2D2C"/>
<path d="M60.6446 91.1779C63.2572 96.7777 70.1601 103.82 70.1601 103.82L39.8522 131.627L22.6788 100.012C15.9722 87.6661 17.6301 72.0696 17.6301 72.0696C17.6301 72.0696 29.4587 78.8998 37.8341 79.3594C45.5032 79.7802 57.0637 75.2318 57.0637 75.2318C57.0637 75.2318 57.9461 85.394 60.6446 91.1779Z" fill="#01BCC5"/>
<path d="M186.694 173.371C183.641 211.446 163.297 253.028 99.1845 247.887C42.0461 243.305 20.9477 206.769 24.001 168.693C20.5643 127.381 73.1437 87.3204 111.812 90.4213C150.48 93.5221 189.747 135.295 186.694 173.371Z" fill="#01B6C1"/>
<ellipse cx="104.628" cy="185.688" rx="40.9057" ry="39.0219" transform="rotate(4.5848 104.628 185.688)" fill="#2CCAD2"/>
<path d="M87.5635 189.887C87.3358 189.856 87.2372 189.727 87.2677 189.5L87.4854 187.808C87.4951 187.736 87.4666 187.695 87.4 187.686L83.5606 187.173C83.4885 187.163 83.4039 187.14 83.3069 187.105C83.2155 187.07 83.1768 187 83.1909 186.894C83.1976 186.844 83.2154 186.796 83.2443 186.749C83.2787 186.703 83.31 186.659 83.3382 186.617C83.8645 185.936 84.3876 185.257 84.9076 184.581C85.4283 183.899 85.949 183.217 86.4698 182.535C86.7923 182.109 87.1157 181.677 87.4397 181.24C87.7638 180.803 88.0951 180.376 88.4336 179.958C88.5158 179.85 88.6235 179.805 88.7568 179.823L90.2975 180.029C90.5252 180.059 90.6238 180.188 90.5933 180.416C90.5124 181.021 90.4259 181.626 90.3339 182.229C90.2481 182.828 90.1648 183.43 90.0838 184.035L89.8126 186.127C89.8029 186.199 89.8314 186.24 89.8981 186.249L90.7392 186.361C90.9669 186.391 91.0655 186.52 91.035 186.748C91.012 186.92 90.9886 187.095 90.9648 187.273C90.9474 187.446 90.9268 187.621 90.903 187.799C90.8785 187.982 90.7998 188.084 90.6669 188.106C90.534 188.128 90.3826 188.119 90.2127 188.079C90.0491 188.035 89.9038 188.001 89.7769 187.979C89.6499 187.956 89.5801 187.992 89.5675 188.086L89.3581 189.779C89.3276 190.007 89.2014 190.106 88.9793 190.076L87.5635 189.887ZM85.8588 185.708L87.7327 185.959L88.0902 183.286L85.8588 185.708ZM96.1166 191.031C95.0784 190.892 94.2449 190.574 93.6162 190.077C92.9937 189.576 92.5657 188.931 92.3321 188.142C92.0984 187.354 92.0481 186.463 92.181 185.469C92.3191 184.436 92.5889 183.559 92.9905 182.839C93.3928 182.113 93.9553 181.583 94.678 181.25C95.4062 180.918 96.3228 180.826 97.4277 180.974C98.527 181.121 99.3931 181.449 100.026 181.957C100.659 182.466 101.085 183.124 101.304 183.934C101.53 184.738 101.573 185.662 101.434 186.706C101.301 187.7 101.013 188.546 100.569 189.244C100.125 189.942 99.5315 190.45 98.788 190.769C98.0454 191.082 97.1549 191.169 96.1166 191.031ZM96.4368 188.827C97.3196 188.945 98.0204 188.776 98.5391 188.32C99.0579 187.863 99.3745 187.208 99.4888 186.353C99.6039 185.492 99.4697 184.785 99.086 184.23C98.7087 183.671 98.0786 183.333 97.1958 183.215C96.2963 183.094 95.5928 183.263 95.0851 183.721C94.5837 184.174 94.2751 184.833 94.1593 185.699C94.0471 186.538 94.1794 187.239 94.556 187.804C94.9381 188.369 95.5651 188.71 96.4368 188.827ZM106.31 192.394C105.272 192.255 104.439 191.937 103.81 191.441C103.188 190.939 102.76 190.294 102.526 189.506C102.292 188.717 102.242 187.826 102.375 186.832C102.513 185.799 102.783 184.923 103.184 184.202C103.587 183.476 104.149 182.947 104.872 182.614C105.6 182.282 106.517 182.189 107.622 182.337C108.721 182.484 109.587 182.812 110.22 183.32C110.852 183.829 111.279 184.488 111.498 185.297C111.724 186.102 111.767 187.026 111.628 188.069C111.495 189.063 111.206 189.909 110.763 190.607C110.319 191.305 109.725 191.813 108.982 192.132C108.239 192.446 107.349 192.533 106.31 192.394ZM106.631 190.19C107.513 190.308 108.214 190.139 108.733 189.683C109.252 189.227 109.568 188.571 109.683 187.716C109.798 186.856 109.663 186.148 109.28 185.594C108.903 185.035 108.272 184.696 107.39 184.578C106.49 184.458 105.787 184.626 105.279 185.084C104.778 185.537 104.469 186.197 104.353 187.063C104.241 187.901 104.373 188.603 104.75 189.167C105.132 189.733 105.759 190.074 106.631 190.19ZM118.148 182.1C118.178 181.873 118.308 181.774 118.535 181.805L119.851 181.981C120.079 182.011 120.177 182.14 120.147 182.368C120.021 183.312 119.892 184.255 119.76 185.198C119.628 186.141 119.499 187.085 119.373 188.029C119.247 188.973 119.123 189.917 119.002 190.861C118.882 191.806 118.758 192.75 118.632 193.694C118.602 193.922 118.473 194.02 118.245 193.99L116.929 193.814C116.701 193.784 116.603 193.654 116.633 193.427C116.759 192.483 116.888 191.539 117.02 190.596C117.152 189.653 117.281 188.71 117.407 187.766C117.534 186.822 117.657 185.878 117.778 184.933C117.898 183.988 118.022 183.044 118.148 182.1ZM128.941 191.597C128.845 192.313 128.608 192.949 128.228 193.502C127.849 194.056 127.361 194.474 126.764 194.756C126.167 195.032 125.494 195.121 124.745 195.02C123.84 194.899 123.104 194.51 122.536 193.852C122.521 193.838 122.503 193.822 122.483 193.802C122.47 193.778 122.449 193.764 122.421 193.76C122.393 193.756 122.374 193.776 122.362 193.82C122.351 193.858 122.345 193.886 122.343 193.902C122.325 194.035 122.301 194.173 122.27 194.316C122.241 194.454 122.129 194.509 121.934 194.483L120.602 194.305C120.374 194.275 120.276 194.143 120.307 193.91C120.348 193.604 120.391 193.302 120.437 193.003C120.489 192.699 120.538 192.395 120.584 192.09C120.681 191.453 120.775 190.816 120.866 190.178C120.956 189.54 121.045 188.902 121.13 188.264C121.215 187.625 121.298 186.986 121.378 186.347C121.458 185.708 121.535 185.068 121.609 184.428C121.644 184.122 121.677 183.818 121.705 183.517C121.741 183.211 121.779 182.905 121.82 182.6C121.851 182.367 121.98 182.265 122.208 182.296L123.499 182.468C123.632 182.486 123.714 182.525 123.746 182.586C123.783 182.648 123.799 182.737 123.795 182.855C123.793 183.036 123.766 183.278 123.714 183.582C123.668 183.887 123.634 184.14 123.613 184.34C123.549 184.863 123.482 185.382 123.413 185.899C123.35 186.416 123.283 186.935 123.213 187.457C123.21 187.479 123.209 187.508 123.21 187.542C123.211 187.576 123.229 187.595 123.262 187.599C123.29 187.603 123.328 187.591 123.377 187.564C124.167 187.15 125.003 187.001 125.886 187.12C126.675 187.225 127.308 187.493 127.788 187.925C128.273 188.351 128.611 188.886 128.803 189.527C128.994 190.169 129.04 190.859 128.941 191.597ZM124.6 193.127C125.01 193.182 125.385 193.128 125.723 192.964C126.062 192.8 126.34 192.56 126.557 192.245C126.78 191.93 126.918 191.575 126.971 191.181C127.024 190.781 126.987 190.401 126.861 190.039C126.735 189.672 126.53 189.362 126.247 189.109C125.97 188.857 125.621 188.703 125.199 188.647C124.821 188.596 124.446 188.631 124.074 188.751C123.709 188.866 123.403 189.076 123.159 189.383C123.132 189.419 123.09 189.478 123.033 189.561C122.977 189.644 122.941 189.707 122.923 189.75C122.903 189.815 122.89 189.892 122.884 189.982C122.878 190.071 122.87 190.152 122.86 190.224C122.832 190.435 122.803 190.649 122.774 190.866C122.746 191.077 122.715 191.287 122.681 191.498C122.798 191.977 123.028 192.352 123.37 192.624C123.712 192.896 124.122 193.064 124.6 193.127Z" fill="black"/>
</svg>
