<svg width="215" height="259" viewBox="0 0 215 259" fill="none" xmlns="http://www.w3.org/2000/svg">
<path d="M154.6 88.795C152.234 94.4657 145.725 101.701 145.725 101.701L176.241 128.622L191.968 96.5371C198.11 84.0073 195.976 68.4691 195.976 68.4691C195.976 68.4691 184.65 75.633 176.486 76.3319C169.011 76.9719 157.571 72.7575 157.571 72.7575C157.571 72.7575 157.045 82.9379 154.6 88.795Z" fill="#01BCC5"/>
<path d="M42.4692 71.5253C40.7698 79.183 45.4715 91.4966 45.4715 91.4966C45.4715 91.4966 36.6254 96.366 30.4105 97.2397C23.4243 98.2218 12.4196 95.1873 12.4196 95.1873C12.4196 95.1873 8.00151 70.9698 12.7856 56.97C17.5932 42.9014 23.3431 34.6464 35.7325 27.3322C57.1005 14.7175 72.66 12.9571 97.2181 10.1787L97.6507 10.1297C122.655 7.30045 140.872 5.30344 162.765 16.938C175.156 23.5234 180.443 28.4931 187.108 41.2953C193.111 52.828 193.88 70.0005 193.88 70.0005C193.88 70.0005 185.07 75.8882 177.88 76.5005C171.121 77.076 161.38 74.0005 161.38 74.0005C161.38 74.0005 161.662 65.1526 159.601 60.0705C156.052 51.3189 152.993 46.9998 141.583 43.9419C130.173 40.8839 120.327 39.3451 103.38 41.2953C89.8376 42.8537 75.6179 44.587 63.6347 51.2921C53.7619 56.8162 45.0143 60.0567 42.4692 71.5253Z" fill="#2B2D2C"/>
<path d="M53.6415 101.25C57.2708 106.251 65.3863 111.854 65.3863 111.854L40.9159 144.914L18.0469 117.14C9.11597 106.293 7.77941 90.6657 7.77941 90.6657C7.77941 90.6657 20.6905 95.1233 29.0006 93.9826C36.6099 92.9382 47.0952 86.2755 47.0952 86.2755C47.0952 86.2755 49.8929 96.0848 53.6415 101.25Z" fill="#01BCC5"/>
<path d="M193.015 157.988C197.254 195.95 185.185 240.641 121.263 247.779C64.2955 254.14 36.6376 222.279 32.3986 184.318C21.1728 144.411 65.18 95.0878 103.733 90.7829C142.285 86.478 188.776 120.026 193.015 157.988Z" fill="#01B6C1"/>
<ellipse cx="114.786" cy="185.678" rx="40.9057" ry="39.0219" transform="rotate(-6.37144 114.786 185.678)" fill="#2CCAD2"/>
</svg>
