<svg width="265" height="260" viewBox="0 0 265 260" fill="none" xmlns="http://www.w3.org/2000/svg">
<path d="M19.9487 205.9L18.9451 14.4072C18.9451 14.4072 60.6476 34.6141 107.082 37.446C153.516 40.2778 198.434 29.5601 198.434 29.5601L171.464 218.692C171.464 218.692 158.211 231.708 147.89 237.257C129.552 247.116 116.226 248.187 95.4486 246.856C80.8186 245.918 64.5489 241.235 51.2154 235.141C33.2544 226.933 19.9487 205.9 19.9487 205.9Z" fill="#F8DEAB"/>
<path d="M198.564 29.4501C197.898 37.3406 156.928 42.9841 107.33 38.7969C57.7329 34.6098 18.2891 22.1776 18.9552 14.2871C19.6214 6.39653 60.3682 3.39435 109.966 7.5815C159.563 11.7686 199.23 21.5595 198.564 29.4501Z" fill="#736A4B"/>
<path d="M210.029 82.8368C196.259 81.9322 183.457 98.2471 183.457 98.2471L187.245 64.8316C187.245 64.8316 211.707 62.1313 227.465 68.227C255.973 79.2548 256.41 116.376 254.799 135.466C253.187 154.555 233.366 200.281 200.025 201.335C166.685 202.39 169.138 191.956 169.138 191.956L171.074 169.025C171.074 169.025 173.408 184.337 196.545 180.97C219.683 177.603 232.85 156.604 235.371 132.133C237.619 110.32 231.911 84.2741 210.029 82.8368Z" fill="#F1D5A8"/>
<path d="M88.5977 179.049L88.0605 185.412L93.8234 185.898L94.3606 179.535L115.002 179.948L137.966 161.452L131.986 157.803L134.19 146.019L123.25 149.569L122.471 138.742L107.287 152.453L112.37 125.193L102.569 129.565L94.4663 109.534L84.9207 128.075L76.5735 120.962L78.8466 147.029L67.0037 134.059L63.4752 140.049L53.3388 131.213L57.7013 149.718L51.8184 149.221L73.8304 177.802L88.5977 179.049Z" fill="#F2CE87"/>
</svg>
