<svg width="265" height="260" viewBox="0 0 265 260" fill="none" xmlns="http://www.w3.org/2000/svg">
<path d="M19.9487 205.9L18.9451 14.4072C18.9451 14.4072 60.6476 34.6141 107.082 37.446C153.516 40.2778 198.434 29.5601 198.434 29.5601L171.464 218.692C171.464 218.692 158.211 231.708 147.89 237.257C129.552 247.116 116.226 248.187 95.4486 246.856C80.8186 245.918 64.5489 241.235 51.2154 235.141C33.2544 226.933 19.9487 205.9 19.9487 205.9Z" fill="#F8DEAB"/>
<path d="M198.564 29.4501C197.898 37.3406 156.928 42.9841 107.33 38.7969C57.7329 34.6098 18.2891 22.1776 18.9552 14.2871C19.6214 6.39653 60.3682 3.39435 109.966 7.5815C159.563 11.7686 199.23 21.5595 198.564 29.4501Z" fill="#736A4B"/>
<path d="M210.029 82.8368C196.259 81.9322 183.457 98.2471 183.457 98.2471L187.245 64.8316C187.245 64.8316 211.707 62.1313 227.465 68.227C255.973 79.2548 256.41 116.376 254.799 135.466C253.187 154.555 233.366 200.281 200.025 201.335C166.685 202.39 169.138 191.956 169.138 191.956L171.073 169.025C171.073 169.025 173.408 184.337 196.545 180.97C219.682 177.603 232.85 156.604 235.371 132.133C237.618 110.32 231.911 84.2741 210.029 82.8368Z" fill="#F1D5A8"/>
<path d="M88.5977 179.049L88.0605 185.412L93.8234 185.898L94.3606 179.535L115.002 179.948L137.966 161.452L131.986 157.803L134.19 146.019L123.25 149.569L122.471 138.742L107.287 152.453L112.37 125.193L102.569 129.565L94.4663 109.534L84.9207 128.075L76.5735 120.962L78.8466 147.029L67.0037 134.059L63.4752 140.049L53.3388 131.213L57.7013 149.718L51.8184 149.221L73.8304 177.802L88.5977 179.049Z" fill="#F2CE87"/>
<path d="M107.758 84.0555C106.913 94.0678 99.5824 103.558 88.0988 100.654C78.0865 99.8087 70.6551 91.0068 71.5003 80.9945C68.7398 70.7255 80.1784 62.1389 90.1907 62.9842C100.203 63.8294 108.604 74.0431 107.758 84.0555Z" fill="#DAA670"/>
<path d="M152.502 95.4499C151.606 106.059 142.495 113.952 132.151 113.078C121.807 112.205 114.148 102.897 115.044 92.2876C115.939 81.6785 125.051 73.786 135.395 74.6593C145.738 75.5325 154.896 84.286 152.502 95.4499Z" fill="#77897B"/>
<path d="M110.407 214.263C109.669 223.015 100.662 229.401 90.291 228.525C79.9199 227.65 72.1114 219.844 72.8503 211.092C73.5892 202.339 82.5957 195.954 92.9668 196.829C103.338 197.705 112.638 205.074 110.407 214.263Z" fill="#D79952"/>
<path d="M67.1179 210.245C62.7559 214.01 55.7523 214.172 48.9515 206.293C42.1508 198.414 41.7524 185.744 46.1144 181.979C50.4764 178.214 58.7192 181.192 65.5199 189.071C70.7865 198.417 71.4799 206.48 67.1179 210.245Z" fill="#F6B551"/>
<path d="M149.38 202.606C145.232 211.64 140.716 215.007 131.079 216.007C121.267 215.179 115.605 208.811 116.364 199.819C117.123 190.827 128.886 183.659 138.697 184.487C148.509 185.316 151.555 193.156 149.38 202.606Z" fill="#6F4334"/>
<ellipse cx="158.95" cy="123.939" rx="13.9925" ry="18.7135" transform="rotate(24.5906 158.95 123.939)" fill="#A09C78"/>
<ellipse cx="154.466" cy="163.342" rx="12.4121" ry="18.7135" transform="rotate(35.3622 154.466 163.342)" fill="#806C61"/>
<path d="M64.7899 85.2268C67.0524 94.546 63.1851 104.485 56.1938 106.182C49.2025 107.88 41.7346 100.693 39.4721 91.3734C37.2096 82.0542 39.2362 71.2473 46.2275 69.55C53.2188 67.8526 62.5274 75.9076 64.7899 85.2268Z" fill="#A99D4F"/>
<ellipse cx="38.4308" cy="157.426" rx="8.39994" ry="16.9817" transform="rotate(-13.7488 38.4308 157.426)" fill="#BCAC8C"/>
<ellipse cx="36.6511" cy="116.377" rx="8.17211" ry="17.9021" transform="rotate(-13.7521 36.6511 116.377)" fill="#95A383"/>
<path d="M114.328 173.119L115.397 178.199L92.6403 181.767L92.0258 177.224C92.0258 177.224 108.529 165.628 104 159C103.11 157.697 102.5 157.5 99.9999 157.5C97.0872 157.5 94.2716 162.444 94.2716 162.444L88.5351 159.464C88.5351 159.464 90.2152 155.966 92.959 154.349C97.8219 151.483 102.212 151.138 107.411 154.571C110.965 156.918 111.243 158.5 111.243 162.38C111.243 168.52 102.186 175.088 102.186 175.088L114.328 173.119Z" fill="#DDA12C"/>
<path d="M114.599 152.184L109.644 151.765L112.266 132.526L118.212 133.028L122.002 141.332L128.701 132.915L133.655 133.333L130.496 153.027L126.986 153.229L128.031 140.843L121.416 148.268L116.14 139.839L114.599 152.184Z" fill="#726D39"/>
<path d="M60.7439 122.188L54.0164 119.125L54.4766 113.675L74.7843 121.378L73.7869 127.282L66.0686 124.135L63.8163 144.903L59.0289 142.503L60.7439 122.188Z" fill="#7A9C8B"/>
<path d="M84.932 131.216L70.6052 129.508L70.9976 148.503L85.778 150.749L85.5754 147.239L74.7169 145.823L74.7169 141.626L83.97 142.612L83.7673 139.102L74.7169 138L74.7169 133.841L84.6392 134.685L84.932 131.216Z" fill="#A19D92"/>
<path d="M108.66 145.695L104.2 145.318L102.057 141.145L92.6437 140.35L90.8231 144.189L85.91 143.275L95.9644 124.663L100.423 125.039L108.66 145.695ZM93.9689 136.47L100.411 137.014L97.94 130.818L93.9689 136.47Z" fill="#EA9946"/>
<path d="M84.8449 173.624L88.8083 173.959L88.3483 179.408L84.3848 179.074L83.9665 184.029L78.0627 183.031L78.0275 177.539L65.3538 173.974L64.7814 168.936L79.3299 156.192L85.2755 156.694L84.8449 173.624ZM78.3127 164.224L70.8327 170.079L70.0111 170.722L71.0273 170.955L77.8798 172.533L78.4384 172.661L79.21 163.521L78.3127 164.224Z" fill="#DC7D57"/>
</svg>
