<svg width="179" height="282" viewBox="0 0 179 282" fill="none" xmlns="http://www.w3.org/2000/svg">
<path d="M83.8531 212.598C85.6035 224.502 101.076 235.467 97.9698 239.984C94.8642 244.501 91.7585 241.678 91.7585 241.678L31.0566 217.68C31.0566 217.68 24.7316 217.562 25.6924 215.703C29.9367 207.494 47.6409 210.209 55.055 204.692C61.2166 200.107 64.3572 196.464 67.4777 189.446C70.4311 182.805 71.2309 178.334 70.5834 171.094C69.959 164.113 67.0444 160.743 64.6544 154.154C61.0723 144.279 55.6949 130.087 56.4667 120.274C57.2385 110.461 56.4667 117.451 58.443 107.287C60.4194 97.1228 61.5317 90.7679 64.6544 82.4414C69.5865 69.2901 78.2064 49.126 78.2064 49.126C78.2064 49.126 105.828 51.9472 122.251 58.1607C138.789 64.4182 161.495 80.7474 161.495 80.7474C161.495 80.7474 156.697 113.525 147.378 132.132C139.843 147.18 135.844 157.22 122.251 167.142C113 173.894 103.664 171.041 95.4288 179C88.9968 185.215 85.613 189.994 83.8531 198.763C82.7901 204.06 83.0672 207.252 83.8531 212.598Z" fill="#FFE721"/>
<path d="M82.4416 281.487L0 250.713L22.0221 214.009L92.6057 242.243L82.4416 281.487Z" fill="#251D17"/>
<path d="M100.793 279.511L82.1592 281.487L92.3232 242.243L98.5346 238.008L100.793 279.511Z" fill="#3B2520"/>
<path d="M150.766 147.661C150.766 147.661 128.462 166.013 113.498 171.377L139.191 144.273C139.191 144.273 152.878 135.368 158.672 126.768C164.165 118.616 167.142 105.875 167.142 105.875L155.848 102.487L158.107 90.9116L179 98.5346C179 98.5346 175.215 119.732 167.989 131.003C163.101 138.627 150.766 147.661 150.766 147.661Z" fill="#F4CE51"/>
<path d="M49.0003 119.059C49.0003 119.059 57.0456 146.812 66.0663 158.107L59.7063 121.215C59.7063 121.215 53.4326 107.392 53.1653 97.3228C52.9118 87.7771 56.8897 75.3371 56.8897 75.3371L67.3755 77.3684L71.338 66.2626L51.2692 63.6881C51.2692 63.6881 43.7388 83.8693 43.8025 96.9043C43.8455 105.721 49.0003 119.059 49.0003 119.059Z" fill="#F4CE51"/>
<path d="M120.892 60.5936C105.651 54.5309 80.5178 49.0179 80.5178 49.0179C80.5178 49.0179 78.4942 36.8706 80.5178 29.5368C83.1055 20.1589 87.2177 15.1555 94.9169 9.20875C104.386 1.89449 112.437 -1.2567 124.28 0.456382C132.336 1.62174 143.196 9.20875 143.196 9.20875L153.078 23.6078C153.078 23.6078 162.988 30.1155 166.912 36.3128C172.605 45.3031 173.989 52.7401 171.712 63.1346C169.915 71.3372 160.983 81.7687 160.983 81.7687C160.983 81.7687 137.344 67.1384 120.892 60.5936Z" fill="#FD8503"/>
<path d="M101.076 38.6797L109.263 16.9399L110.675 31.6213H118.016L122.533 36.1387V45.738L138.908 49.4084V56.7491L113.498 55.0551L117.169 41.2207L114.345 36.1387L106.44 38.6797H101.076Z" fill="#521101" stroke="black" stroke-width="0.564669"/>
<path d="M119.427 15.811L113.498 10.7289L126.486 9.59961L119.427 15.811Z" fill="#710B00" stroke="black" stroke-width="0.564669"/>
<path d="M123.945 29.6453L119.992 26.8219L125.639 25.1279L123.945 29.6453Z" fill="#710B00" stroke="black" stroke-width="0.564669"/>
<path d="M144.838 46.303L138.062 35.2919L152.178 34.1626L144.838 46.303Z" fill="#710B00" stroke="black" stroke-width="0.564669"/>
<path d="M156.131 30.21L145.12 13.8346L164.319 9.59961C164.319 9.59961 169.742 14.0442 170.53 18.0696C171.316 22.0849 167.989 28.2337 167.989 28.2337L156.131 30.21Z" fill="#17855A"/>
</svg>
