<svg width="180" height="313" viewBox="0 0 180 313" fill="none" xmlns="http://www.w3.org/2000/svg">
<path d="M21.3316 48.5292L4.92366 54.3017L13.2169 70.0225L106.794 133.555L148.785 46.3914L135.817 37.957L21.3316 48.5292Z" fill="#F7AA5C"/>
<path d="M21.2832 87.104L27.2892 75.4802C27.2892 75.4802 33.8709 70.8527 37.74 67.6909C43.4078 63.0591 42.6866 57.4302 51.0331 55.2156C54.9189 54.1846 57.6023 54.9975 61.6658 54.334C68.7556 53.1766 71.4335 50.1122 78.5324 48.9798C89.2919 47.2633 97.2876 46.8004 106.763 50.5949C115.551 54.114 121.747 64.9288 121.747 64.9288C121.747 64.9288 127.129 63.8291 130.547 64.1993C140.978 65.3288 140.397 80.9367 140.397 80.9367L119.307 121.255L104 119.063L82.2775 116.413L56.1563 106.217L21.2832 87.104Z" fill="#FFC8B4"/>
<path d="M4.73999 55.814L61.7337 205.09L109.042 115.773L92.2691 106.697L81.6363 108.024L73.8467 96.3366L58.3105 94.1806L46.9914 87.0297L37.9183 76.9917L21.3284 72.3607L4.73999 55.814Z" fill="#BA760A"/>
<path d="M129.793 195.474C129.793 195.474 110.622 304.364 101.364 304.775C92.106 305.187 59.6249 209.077 59.6249 209.077L64.7137 196.153L63.2486 184.421L65.5427 164.027L72.509 163.157L81.677 147.117L88.6914 128.74L94.9244 127.962L98.8667 120.767L107.575 115.956L122.932 83.877L130.816 78.4242L146.952 46.6201L129.793 195.474Z" fill="#764602"/>
<path d="M124.617 66.6085C127.449 70.5748 132.207 81.6528 128.079 85.0156C122.357 89.6766 111.281 91.4971 105.36 86.8993C100.493 83.1196 111.404 84.0874 115.869 80.1246C121.847 74.8177 120.297 60.5564 124.617 66.6085Z" fill="#EB9C80"/>
<path d="M69.2388 71.2C69.1863 76.7389 84.8457 78.229 80.8372 83.0291C77.2518 87.3224 68.3017 87.4568 62.3776 84.5596C55.2557 81.0766 58.5302 74.6326 62.3935 69.3079C69.6857 59.2569 116.524 58.3564 104.282 65.8348C93.8564 72.204 69.3296 61.6253 69.2388 71.2Z" fill="#EB9C80"/>
</svg>
