<svg width="180" height="313" viewBox="0 0 180 313" fill="none" xmlns="http://www.w3.org/2000/svg">
<path d="M21.3313 48.5292L4.92341 54.3017L13.2167 70.0225L106.794 133.555L148.785 46.3914L135.816 37.957L21.3313 48.5292Z" fill="#F7AA5C"/>
<path d="M21.2832 66.0363L27.2892 48.5299C27.2892 48.5299 33.8709 41.5607 37.74 36.7988C43.4078 29.8229 42.6866 21.3453 51.0331 18.0101C54.9189 16.4573 57.6023 17.6815 61.6659 16.6824C68.7556 14.9391 71.4335 10.324 78.5324 8.61842C89.2919 6.03327 97.2876 5.33615 106.763 11.051C115.551 16.3509 121.747 32.6389 121.747 32.6389C121.747 32.6389 127.129 30.9827 130.547 31.5401C140.978 33.2413 140.397 56.7479 140.397 56.7479L119.307 117.47L104.001 114.168L82.2775 110.178L56.1563 94.8221L21.2832 66.0363Z" fill="#FFC8B4"/>
<path d="M4.73999 55.814L61.7337 205.09L109.042 115.773L92.2691 106.697L81.6363 108.024L73.8467 96.3366L58.3105 94.1806L46.9914 87.0297L37.9183 76.9917L21.3284 72.3607L4.73999 55.814Z" fill="#BA760A"/>
<path d="M129.793 195.474C129.793 195.474 110.622 304.364 101.364 304.775C92.106 305.187 59.6249 209.077 59.6249 209.077L64.7137 196.153L63.2486 184.421L65.5427 164.027L72.509 163.157L81.677 147.117L88.6914 128.74L94.9244 127.962L98.8667 120.767L107.575 115.956L122.932 83.877L130.816 78.4242L146.952 46.6201L129.793 195.474Z" fill="#764602"/>
<path d="M124.617 35.1696C127.449 41.1432 132.207 57.8274 128.079 62.892C122.357 69.9119 111.281 72.6537 105.36 65.729C100.493 60.0365 111.404 61.4941 115.869 55.5258C121.847 47.5333 120.297 26.0547 124.617 35.1696Z" fill="#EB9C80"/>
<path d="M69.2388 42.0848C69.1863 50.4268 84.8457 52.6709 80.8372 59.9002C77.2518 66.3663 68.3017 66.5687 62.3776 62.2053C55.2557 56.9596 58.5302 47.2546 62.3935 39.2351C69.6857 24.0976 116.524 22.7414 104.282 34.0043C93.8564 43.5968 69.3296 27.6646 69.2388 42.0848Z" fill="#EB9C80"/>
</svg>
