<svg width="181" height="277" viewBox="0 0 181 277" fill="none" xmlns="http://www.w3.org/2000/svg">
<path d="M68.2507 229.338C60.4169 229.111 24.1235 186.159 27.4297 182.289C30.736 178.419 136.174 148.183 136.174 148.183C136.174 148.183 182.791 182.755 179.764 190.02C176.738 197.285 76.0844 229.566 68.2507 229.338Z" fill="#FD8E28"/>
<path d="M27.9986 187.361L27.3303 183.486C27.3303 183.486 63.6683 228.028 68.7273 229.015C73.7863 230.002 179.721 189.923 179.721 189.923C179.721 189.923 180 189.077 180.189 192.635C180.378 196.194 76.3162 233.586 69.3955 232.89C62.4749 232.194 27.9986 187.361 27.9986 187.361Z" fill="#FFAB5F"/>
<ellipse cx="7.07189" cy="2.26467" rx="7.07189" ry="2.26467" transform="matrix(0.957932 -0.286995 0.302306 0.953211 71.5952 217.715)" fill="#F5F5F5"/>
<ellipse cx="7.07189" cy="2.26467" rx="7.07189" ry="2.26467" transform="matrix(0.957932 -0.286995 0.302306 0.953211 155.935 185.666)" fill="#F5F5F5"/>
<ellipse cx="7.07189" cy="2.26467" rx="7.07189" ry="2.26467" transform="matrix(0.957932 -0.286995 0.302306 0.953211 37.5098 183.134)" fill="#F5F5F5"/>
<path d="M71.5604 207.707C60.1599 204.546 46.2024 192.06 46.2024 192.06L58.1163 19.8327C58.1163 19.8327 64.5131 14.383 69.5961 13.4039C73.8862 12.5776 82.333 14.264 82.333 14.264L114.482 85.6032L157.522 172.862C157.522 172.862 155.762 178.865 153.834 182.396C145.151 198.297 136.426 202.034 118.219 206.888C103.244 210.88 86.3224 211.801 71.5604 207.707Z" fill="#ED7D1C"/>
<path d="M102.704 226.121C102.676 226.12 102.596 226.718 102.566 227.898C102.537 229.054 103.215 230.042 104.351 231.246C106.282 233.294 109.627 235.021 112.923 236.573C115.245 237.666 118.261 237.902 121.448 238.133C124.352 238.343 128.674 235.701 132.363 232.693C133.984 231.371 134.555 229.386 135.631 226.026C136.022 223.571 136.003 220.609 135.071 218.011C134.609 217.005 133.897 215.61 132.845 213.778" stroke="#2B2D2C" stroke-width="2" stroke-linecap="round"/>
<path d="M123.301 239.13C123.287 239.355 123.325 241.979 123.916 247.763C124.67 255.145 126.7 259.409 126.795 260.061C127.174 262.682 122.206 268.936 119.522 274.423C117.401 278.761 126.387 260.814 127.079 260.487C127.955 260.376 128.969 260.587 132.008 262.465C134.532 264.133 139.048 267.251 144.016 270.756" stroke="#2B2D2C" stroke-width="2" stroke-linecap="round"/>
<path d="M114.572 246.274C116.478 246.455 122.089 247.322 124.744 247.786C125.591 247.953 128.365 245.829 133.785 241.275C136.813 238.938 140.403 236.548 144.101 234.086" stroke="#2B2D2C" stroke-width="2" stroke-linecap="round"/>
</svg>
