<svg width="180" height="276" viewBox="0 0 180 276" fill="none" xmlns="http://www.w3.org/2000/svg">
<path d="M38.914 270.302C29.7448 268.324 -4.23533 206.656 0.439151 202.521C5.11363 198.386 135.281 183.284 135.281 183.284C135.281 183.284 183.105 236.681 178.071 245.131C173.037 253.581 48.0832 272.279 38.914 270.302Z" fill="#FD8E28"/>
<path d="M0.0793457 209L0.0793736 204C0.0793736 204 33.7892 267.67 39.5402 270C45.2912 272.33 178.04 245 178.04 245C178.04 245 178.54 244 178.04 248.5C177.54 253 47.5402 277.368 39.5402 275C31.5403 272.632 0.0793457 209 0.0793457 209Z" fill="#FFAB5F"/>
<ellipse cx="53.9548" cy="258.233" rx="8.45008" ry="2.87662" transform="rotate(-7.33806 53.9548 258.233)" fill="#F5F5F5"/>
<ellipse cx="159.671" cy="236.299" rx="8.45008" ry="2.87662" transform="rotate(-7.33806 159.671 236.299)" fill="#F5F5F5"/>
<ellipse cx="20.8738" cy="207.532" rx="8.45008" ry="2.87662" transform="rotate(-7.33806 20.8738 207.532)" fill="#F5F5F5"/>
<path d="M47.1957 243.91C34.4261 237.485 20.54 218.823 20.54 218.823L69.4959 5.57723C69.4959 5.57723 78.1265 0.13051 84.3046 0.00219309C89.5188 -0.106106 99.1133 3.83263 99.1133 3.83263L122.459 100.176L155.386 218.823C155.386 218.823 152.098 225.966 149.114 229.973C135.673 248.023 124.651 250.819 102.249 252.967C83.8235 254.734 63.7307 252.23 47.1957 243.91Z" fill="#ED7D1C"/>
</svg>
