<svg width="233" height="438" viewBox="0 0 233 438" fill="none" xmlns="http://www.w3.org/2000/svg">
<path d="M31.1356 406.205C46.233 418.941 79.4435 422.854 79.4435 422.854C79.4435 422.854 122.901 432.009 142.762 416.052C155.556 405.774 160.066 396.8 164.984 381.144C174.726 350.134 147.886 327.996 154.815 296.239C157.878 282.199 165.496 278.589 167.054 264.304C167.898 256.566 165.929 249.741 162.903 242.569C158.255 231.55 138.343 226.666 125.046 224.023C123.712 223.757 122.444 223.515 121.265 223.291C80.3633 215.518 71.6666 218.735 67.8992 220.617C63.3992 222.864 59.8989 223.313 55.4625 232.057C44.0403 254.567 55.8613 267.733 49.217 285.427C43.6933 300.137 29.7161 313.708 29.7161 313.708C29.7161 313.708 7.22784 343.016 9.71752 365.114C11.8206 383.78 16.7777 394.093 31.1356 406.205Z" fill="#D0986A"/>
<path d="M93.8167 313.076C98.3904 308.377 100.929 297.866 100.929 297.866C100.929 297.866 96.3325 294.511 93.4492 291.086C89.3751 286.246 88.9171 278.64 90.0163 272.41C91.3044 265.11 99.1077 261.31 99.1077 261.31C99.1077 261.31 91.9051 259.518 86.8856 262.398C79.2315 266.789 71.8314 271.552 66.8287 281.643C62.4315 290.512 61.4779 297.837 63.2202 306.612C64.7748 314.441 70.7793 320.127 78.7469 320.604C85.3137 320.997 89.2282 317.79 93.8167 313.076Z" fill="#171613"/>
<ellipse cx="21.3753" cy="21.6943" rx="21.3753" ry="21.6943" transform="matrix(-0.982417 -0.186697 -0.186697 0.982417 131.958 261.044)" fill="#AB7B55"/>
<path d="M111.502 255.046C98.3432 252.545 85.6946 260.977 83.2444 273.87C80.7943 286.762 89.4684 299.245 102.627 301.746C115.785 304.247 128.435 295.816 130.885 282.923C133.335 270.03 124.66 257.546 111.502 255.046Z" stroke="black" stroke-width="0.319034"/>
<path d="M112.074 253.865C98.2392 251.236 84.9403 260.1 82.3642 273.655C79.7885 287.21 88.9087 300.334 102.743 302.963C116.577 305.592 129.876 296.729 132.452 283.174C135.028 269.618 125.908 256.494 112.074 253.865Z" stroke="black" stroke-width="0.335424"/>
<path d="M112.558 249.436C96.6422 246.411 81.3428 256.609 78.3792 272.203C75.4156 287.798 85.9079 302.896 101.824 305.921C117.739 308.946 133.039 298.748 136.002 283.154C138.966 267.559 128.474 252.46 112.558 249.436Z" stroke="black" stroke-width="0.385886"/>
<path d="M122.206 353.367L124.231 342.711L63.7029 330.559L61.0885 341.753L72.5285 343.927C72.5285 343.927 74.9463 346.427 78.38 347.312L78.7228 347.4C88.0888 349.814 92.7153 351.006 100.671 352.197C104.648 352.793 110.923 351.223 110.923 351.223L122.206 353.367Z" fill="#5F4B42"/>
<path d="M100.092 252.716L122.972 257.064L155.123 76.7706L138.198 73.5542L100.092 252.716Z" fill="#705E5A"/>
<path d="M137.636 67.1148C138.42 69.6732 137.796 73.9647 137.796 73.9647L154.877 77.2109C154.877 77.2109 155.737 72.9617 157.382 70.8672C159.123 68.6503 163.35 66.8055 163.35 66.8055C163.35 66.8055 163.645 53.9472 164.744 45.7996C166.109 35.6701 170.411 20.2477 170.411 20.2477L160.858 15.8343L157.874 17.8652L155.687 14.8515L146.121 15.6316C146.121 15.6316 144.098 31.2232 141.326 40.8623C138.986 49.0021 133.731 61.1768 133.731 61.1768C133.731 61.1768 136.823 64.461 137.636 67.1148Z" fill="#A56F53"/>
<circle cx="1.27614" cy="1.27614" r="1.27614" transform="matrix(-0.982417 -0.186697 -0.186697 0.982417 165.362 25.458)" fill="#D9D9D9"/>
<circle cx="1.27614" cy="1.27614" r="1.27614" transform="matrix(-0.982417 -0.186697 -0.186697 0.982417 150.631 22.6587)" fill="#D9D9D9"/>
<circle cx="1.27614" cy="1.27614" r="1.27614" transform="matrix(-0.982417 -0.186697 -0.186697 0.982417 149.966 38.1201)" fill="#D9D9D9"/>
<circle cx="1.27614" cy="1.27614" r="1.27614" transform="matrix(-0.982417 -0.186697 -0.186697 0.982417 144.643 50.748)" fill="#D9D9D9"/>
<circle cx="1.27614" cy="1.27614" r="1.27614" transform="matrix(-0.982417 -0.186697 -0.186697 0.982417 160.628 53.7856)" fill="#D9D9D9"/>
<circle cx="1.27614" cy="1.27614" r="1.27614" transform="matrix(-0.982417 -0.186697 -0.186697 0.982417 161.249 40.2642)" fill="#D9D9D9"/>
<path d="M138.247 50.2313L139.187 50.41L138.859 52.1338L137.919 51.9551C137.919 51.9551 136.43 54.7262 134.786 54.7696C132.53 54.8291 131.514 51.8973 132.016 49.6966C132.497 47.5884 134.391 45.494 136.394 46.3071C137.965 46.9442 138.247 50.2313 138.247 50.2313Z" fill="#373737"/>
<path d="M142.942 37.4847L143.883 37.6634L143.555 39.3872L142.615 39.2085C142.615 39.2085 141.126 41.9796 139.482 42.023C137.225 42.0825 136.209 39.1508 136.711 36.9501C137.192 34.8418 139.086 32.7474 141.09 33.5605C142.66 34.1977 142.942 37.4847 142.942 37.4847Z" fill="#373737"/>
<path d="M145.801 22.4402L146.742 22.6189L146.414 24.3428L145.474 24.1641C145.474 24.1641 143.985 26.9351 142.341 26.9785C140.084 27.0381 139.068 24.1063 139.57 21.9056C140.052 19.7974 141.945 17.703 143.949 18.5161C145.519 19.1532 145.801 22.4402 145.801 22.4402Z" fill="#373737"/>
<path d="M163.851 55.0539L163.015 54.8951L162.692 56.5981L163.527 56.7569C163.527 56.7569 163.799 59.8257 165.137 60.4315C166.974 61.2631 168.819 58.9082 169.163 56.7051C169.493 54.5946 168.655 52.0107 166.726 52.0712C165.214 52.1185 163.851 55.0539 163.851 55.0539Z" fill="#373737"/>
<path d="M164.472 41.5324L163.636 41.3736L163.313 43.0767L164.148 43.2354C164.148 43.2354 164.42 46.3042 165.758 46.9101C167.595 47.7416 169.44 45.3867 169.784 43.1836C170.114 41.0731 169.276 38.4893 167.347 38.5497C165.835 38.597 164.472 41.5324 164.472 41.5324Z" fill="#373737"/>
<path d="M167.331 26.488L166.495 26.3292L166.172 28.0322L167.007 28.191C167.007 28.191 167.279 31.2597 168.617 31.8656C170.454 32.6972 172.299 30.3423 172.643 28.1392C172.973 26.0287 172.135 23.4448 170.206 23.5053C168.694 23.5526 167.331 26.488 167.331 26.488Z" fill="#373737"/>
<path d="M158.674 55.5249L100.914 344.937" stroke="#D7BE9E" stroke-width="0.638069"/>
<path d="M158.503 41.0415L97.9662 344.214" stroke="#D7BE9E" stroke-width="0.478552"/>
<path d="M158.601 25.1475L95.1455 343.678" stroke="#D7BE9E" stroke-width="0.382841"/>
<path d="M155.781 24.6118L92.3247 343.142" stroke="#D7BE9E" stroke-width="0.319034"/>
<path d="M150.041 39.4336L89.5037 342.606" stroke="#D7BE9E" stroke-width="0.255228"/>
<path d="M144.599 52.688L86.8396 342.1" stroke="#D7BE9E" stroke-width="0.159517"/>
<path d="M83.5698 140.258C83.5149 140.258 82.7422 140.258 81.4348 140.687C79.9304 141.181 80.1184 144.391 80.2833 146.918C80.3492 147.928 80.8772 148.322 81.4398 148.66C82.6413 149.38 84.8263 149.543 86.9575 148.987C87.8773 148.747 87.7665 147.183 87.3668 146.067C86.9672 144.951 86.1024 143.97 85.2961 143.348C84.4898 142.726 83.7681 142.493 83.1775 142.663C82.587 142.833 82.1494 143.412 81.924 144.184C81.6986 144.957 81.6986 145.904 82.0561 146.448C82.4136 146.992 83.1287 147.105 83.7784 147.163C84.4281 147.221 84.9907 147.221 85.3155 146.582C86.2025 144.838 85.5904 142.573 85.5676 141.344C85.5587 140.861 86.2741 140.787 86.6246 141.002C86.9751 141.216 87.1229 141.752 86.849 142.267C86.1962 143.493 83.8925 144.037 81.9105 144.835C80.5175 145.396 80.9036 147.456 81.147 148.627C81.2645 149.192 81.8772 149.53 82.4159 149.669C82.9546 149.807 83.5305 149.693 83.8664 149.254C84.637 148.249 84.362 146.419 84.6329 145.178C84.7332 144.719 85.4455 144.906 85.7738 144.696C88.2465 143.107 86.0606 136.844 83.1437 127.762C82.2828 125.475 81.5582 123.939 82.6942 124.209C83.8302 124.478 86.8487 126.599 90.4264 128.959" stroke="#BC2323" stroke-width="2" stroke-linecap="round"/>
<path d="M73.6508 85.661C73.5959 85.661 72.9122 85.662 71.6918 85.9277C71.0822 86.0604 70.6723 86.7209 70.3912 87.2621C69.8646 88.276 69.9197 90.3778 70.2607 92.8178C70.4014 93.8247 71.2836 94.1639 72.4664 94.3829C73.6493 94.6019 75.3125 94.6397 76.2715 94.3278C77.2306 94.0158 77.4351 93.3528 77.5377 92.4132C77.7697 90.2877 77.3597 88.5646 76.6392 87.6623C75.8121 86.6267 74.3681 86.3299 73.3445 86.2208C72.8632 86.1694 72.4838 86.7026 72.2852 87.4113C72.0866 88.12 72.0866 89.1353 72.2964 89.9027C72.5062 90.6701 72.9258 91.1588 73.436 91.3646C73.9462 91.5705 74.5344 91.4786 75.1281 91.0761C75.7219 90.6736 76.3034 89.9633 76.0916 89.5613C75.8797 89.1594 74.8568 89.0874 74.3142 89.344C73.7717 89.6005 73.7404 90.1877 73.8531 90.7459C73.9658 91.3041 74.2235 91.8156 74.636 92.0994C75.0486 92.3833 75.6084 92.424 76.0454 92.1338C78.2982 90.6383 78.5283 87.1314 78.8302 80.4428C79 76.6793 75.9861 74.9531 75.7165 73.951C75.2935 72.3791 82.5782 73.1275 88.9053 73.5802C91.1581 73.7414 91.3046 74.9383 91.4386 77.4307C91.7902 83.9687 91.2349 88.6144 89.6482 89.32C88.6236 89.7755 86.869 89.5624 85.8949 89.8522C84.9208 90.1421 84.7077 90.7198 84.6936 91.276C84.6795 91.8322 84.8708 92.3493 85.2019 92.8056C85.8799 93.7401 87.0719 94.1817 88.2577 94.2337C88.856 94.2599 89.418 93.7903 89.8282 93.3328C90.2384 92.8753 90.4723 92.3175 90.3996 91.8373C90.3269 91.3572 89.9405 90.9717 89.4772 90.8707C89.0139 90.7697 88.4854 90.9648 88.0995 91.3296C87.7136 91.6943 87.4862 92.2228 87.5751 92.675C87.7592 93.6113 89.0375 94.1373 90.1098 94.4143C90.628 94.5482 91.1621 94.1193 91.4285 93.619C91.6949 93.1188 91.6949 92.4198 91.4534 91.8864C90.9832 90.848 89.6525 90.4503 88.6615 90.4269C88.2493 90.6024 88.021 91.1584 87.9944 91.7522C87.9677 92.3459 88.1496 92.9606 89.9356 93.7604" stroke="#BC2323" stroke-width="2" stroke-linecap="round"/>
<path d="M116.504 106.007C116.449 106.007 113.842 106.007 109.765 106.311C108.239 106.425 107.923 107.223 107.749 108.116C107.357 110.137 107.879 111.845 108.592 112.719C109.34 113.638 111.192 113.7 113.293 113.351C115.518 112.982 116.634 111.122 117.21 110.022C118.589 107.388 113.941 93.5014 112.3 85.668C112.208 85.2297 113.104 85.1861 113.602 85.2923C114.099 85.3984 114.538 85.7356 115.46 86.8498C116.382 87.9639 117.772 89.8449 119.205 91.7829" stroke="#BC2323" stroke-width="2" stroke-linecap="round"/>
</svg>
