<svg width="233" height="438" viewBox="0 0 233 438" fill="none" xmlns="http://www.w3.org/2000/svg">
<path d="M201.027 406.205C185.93 418.941 152.719 422.854 152.719 422.854C152.719 422.854 109.262 432.009 89.4003 416.052C76.607 405.774 72.097 396.8 67.1786 381.144C57.4367 350.134 84.2767 327.996 77.3476 296.239C74.2843 282.199 66.6661 278.589 65.1087 264.304C64.2651 256.566 66.234 249.741 69.2592 242.569C73.9073 231.55 93.82 226.666 107.117 224.023C108.451 223.757 109.719 223.515 110.897 223.291C151.799 215.518 160.496 218.735 164.263 220.617C168.763 222.864 172.264 223.313 176.7 232.057C188.122 254.567 176.301 267.733 182.946 285.427C188.469 300.137 202.446 313.708 202.446 313.708C202.446 313.708 224.935 343.016 222.445 365.114C220.342 383.78 215.385 394.093 201.027 406.205Z" fill="#D0986A"/>
<path d="M138.346 313.076C133.772 308.377 131.234 297.866 131.234 297.866C131.234 297.866 135.83 294.511 138.713 291.086C142.788 286.246 143.245 278.64 142.146 272.41C140.858 265.11 133.055 261.31 133.055 261.31C133.055 261.31 140.258 259.518 145.277 262.398C152.931 266.789 160.331 271.552 165.334 281.643C169.731 290.512 170.685 297.837 168.942 306.612C167.388 314.441 161.383 320.127 153.416 320.604C146.849 320.997 142.934 317.79 138.346 313.076Z" fill="#171613"/>
<ellipse cx="125.255" cy="278.367" rx="21.3753" ry="21.6943" transform="rotate(-10.7601 125.255 278.367)" fill="#AB7B55"/>
<path d="M120.661 255.046C133.819 252.545 146.468 260.977 148.918 273.87C151.368 286.762 142.694 299.245 129.536 301.746C116.377 304.247 103.728 295.816 101.278 282.923C98.8275 270.03 107.502 257.546 120.661 255.046Z" stroke="black" stroke-width="0.319034"/>
<path d="M120.089 253.865C133.923 251.236 147.222 260.1 149.798 273.655C152.374 287.21 143.254 300.334 129.42 302.963C115.585 305.592 102.287 296.729 99.7104 283.174C97.1344 269.618 106.254 256.494 120.089 253.865Z" stroke="black" stroke-width="0.335424"/>
<path d="M119.605 249.436C135.52 246.411 150.82 256.609 153.783 272.203C156.747 287.798 146.255 302.896 130.339 305.921C114.423 308.946 99.124 298.748 96.1604 283.154C93.1968 267.559 103.689 252.46 119.605 249.436Z" stroke="black" stroke-width="0.385886"/>
<path d="M109.956 353.367L107.931 342.711L168.46 330.559L171.074 341.753L159.634 343.927C159.634 343.927 157.216 346.427 153.783 347.312L153.44 347.4C144.074 349.814 139.447 351.006 131.492 352.197C127.514 352.793 121.24 351.223 121.24 351.223L109.956 353.367Z" fill="#5F4B42"/>
<path d="M132.071 252.716L109.191 257.064L77.0392 76.7706L93.9642 73.5542L132.071 252.716Z" fill="#705E5A"/>
<path d="M94.5264 67.1148C93.7426 69.6732 94.3668 73.9647 94.3668 73.9647L77.2851 77.2109C77.2851 77.2109 76.4259 72.9617 74.7806 70.8672C73.0391 68.6503 68.8128 66.8055 68.8128 66.8055C68.8128 66.8055 68.5173 53.9472 67.4188 45.7996C66.0532 35.6701 61.7511 20.2477 61.7511 20.2477L71.3042 15.8343L74.2881 17.8652L76.4757 14.8515L86.0416 15.6316C86.0416 15.6316 88.0649 31.2232 90.8364 40.8623C93.1768 49.0021 98.4315 61.1768 98.4315 61.1768C98.4315 61.1768 95.3393 64.461 94.5264 67.1148Z" fill="#A56F53"/>
<circle cx="68.2927" cy="26.4735" r="1.27614" transform="rotate(-10.7601 68.2927 26.4735)" fill="#D9D9D9"/>
<circle cx="83.0237" cy="23.6741" r="1.27614" transform="rotate(-10.7601 83.0237 23.6741)" fill="#D9D9D9"/>
<circle cx="83.6887" cy="39.1356" r="1.27614" transform="rotate(-10.7601 83.6887 39.1356)" fill="#D9D9D9"/>
<circle cx="89.0112" cy="51.7635" r="1.27614" transform="rotate(-10.7601 89.0112 51.7635)" fill="#D9D9D9"/>
<circle cx="73.0264" cy="54.8011" r="1.27614" transform="rotate(-10.7601 73.0264 54.8011)" fill="#D9D9D9"/>
<circle cx="72.4053" cy="41.2796" r="1.27614" transform="rotate(-10.7601 72.4053 41.2796)" fill="#D9D9D9"/>
<path d="M93.9159 50.2313L92.9756 50.41L93.3032 52.1338L94.2435 51.9551C94.2435 51.9551 95.7322 54.7262 97.3763 54.7696C99.6328 54.8291 100.649 51.8973 100.147 49.6966C99.6657 47.5884 97.7719 45.494 95.7681 46.3071C94.1978 46.9442 93.9159 50.2313 93.9159 50.2313Z" fill="#373737"/>
<path d="M89.2204 37.4847L88.2801 37.6634L88.6077 39.3872L89.5479 39.2085C89.5479 39.2085 91.0367 41.9796 92.6808 42.023C94.9373 42.0825 95.9535 39.1508 95.4513 36.9501C94.9701 34.8418 93.0764 32.7474 91.0726 33.5605C89.5023 34.1977 89.2204 37.4847 89.2204 37.4847Z" fill="#373737"/>
<path d="M86.3612 22.4402L85.4209 22.6189L85.7485 24.3428L86.6888 24.1641C86.6888 24.1641 88.1776 26.9351 89.8216 26.9785C92.0781 27.0381 93.0944 24.1063 92.5921 21.9056C92.111 19.7974 90.2172 17.703 88.2134 18.5161C86.6432 19.1532 86.3612 22.4402 86.3612 22.4402Z" fill="#373737"/>
<path d="M68.3119 55.0539L69.1473 54.8951L69.4709 56.5981L68.6355 56.7569C68.6355 56.7569 68.3638 59.8257 67.0256 60.4315C65.1887 61.2631 63.3433 58.9082 62.9992 56.7051C62.6697 54.5946 63.5076 52.0107 65.4368 52.0712C66.9485 52.1185 68.3119 55.0539 68.3119 55.0539Z" fill="#373737"/>
<path d="M67.6908 41.5324L68.5262 41.3736L68.8499 43.0767L68.0144 43.2354C68.0144 43.2354 67.7428 46.3042 66.4045 46.9101C64.5676 47.7416 62.7222 45.3867 62.3782 43.1836C62.0486 41.0731 62.8865 38.4893 64.8157 38.5497C66.3274 38.597 67.6908 41.5324 67.6908 41.5324Z" fill="#373737"/>
<path d="M64.8319 26.488L65.6673 26.3292L65.991 28.0322L65.1555 28.191C65.1555 28.191 64.8839 31.2597 63.5456 31.8656C61.7088 32.6972 59.8633 30.3423 59.5193 28.1392C59.1897 26.0287 60.0276 23.4448 61.9568 23.5053C63.4686 23.5526 64.8319 26.488 64.8319 26.488Z" fill="#373737"/>
<path d="M73.4888 55.5249L131.249 344.937" stroke="#D7BE9E" stroke-width="0.638069"/>
<path d="M73.6592 41.0415L134.196 344.214" stroke="#D7BE9E" stroke-width="0.478552"/>
<path d="M73.5613 25.1475L137.017 343.678" stroke="#D7BE9E" stroke-width="0.382841"/>
<path d="M76.3821 24.6118L139.838 343.142" stroke="#D7BE9E" stroke-width="0.319034"/>
<path d="M82.1216 39.4336L142.659 342.606" stroke="#D7BE9E" stroke-width="0.255228"/>
<path d="M87.5632 52.688L145.323 342.1" stroke="#D7BE9E" stroke-width="0.159517"/>
</svg>
