<svg width="236" height="185" viewBox="0 0 236 185" fill="none" xmlns="http://www.w3.org/2000/svg">
<path d="M112.352 140.149C106.853 139.998 98.9287 135.878 98.9287 135.878C98.9287 135.878 68.7651 99.0163 65.9817 70.5946C64.2246 52.6521 72.083 24.835 72.083 24.835C72.083 24.835 77.1926 15.1314 82.4552 10.802C90.8974 3.8568 98.5179 4.66858 109.301 2.87031C123.872 0.440213 133.232 -2.14173 147.129 2.87031C158.829 7.09024 172.754 21.7843 172.754 21.7843C172.754 21.7843 156.352 20.7729 147.129 24.835C132.505 31.2755 127.881 42.1598 121.66 56.8037L121.503 57.1718C115.205 71.9966 115.472 81.952 116.012 98.0504C116.542 113.836 123.944 137.709 123.944 137.709C123.944 137.709 116.976 140.277 112.352 140.149Z" fill="#FFC03D"/>
<path d="M147.796 88.8377C140.14 104.326 140.5 133.167 140.5 133.167L156.308 139.783C156.308 139.783 160.503 129.122 167.786 123.246C183.668 110.434 183.668 110.434 199.513 110.434C214.836 110.434 233.523 127.212 233.523 127.212C233.523 127.212 238.371 100.929 233.523 85.5295C230.17 74.8807 219.539 61.0494 219.539 61.0494C219.539 61.0494 197.498 51.7374 183.668 55.0948C165.595 59.4818 156.569 71.0922 147.796 88.8377Z" fill="#FEC244"/>
<path d="M129.425 140.589C124.298 140.354 117.223 135.707 117.223 135.707C117.223 135.707 109.291 114.963 108.681 103.371C108.071 91.7782 111.122 69.8135 115.392 60.0515C119.663 50.2894 132.476 26.4944 148.949 21.0032C165.423 15.512 167.927 16.0487 178.235 21.0032C183.434 23.5019 189.828 30.1552 189.828 30.1552C189.828 30.1552 202.281 32.9436 208.132 38.0868C216.474 45.4198 219.114 64.3224 219.114 64.3224C219.114 64.3224 199.077 54.3419 186.167 57.0008C168.342 60.6723 162.484 74.5477 153.83 90.5579C145.228 106.473 143.458 135.707 143.458 135.707C143.458 135.707 135.221 140.854 129.425 140.589Z" fill="#FEA31A"/>
<path d="M53.1689 126.116C53.1689 126.116 25.6254 154.973 17.1713 152.352C8.71711 149.731 1.25636 139.522 0.0876522 127.947C-0.754203 119.609 4.72411 115.539 5.57881 107.202C6.13775 101.751 5.57881 93.1694 5.57881 93.1694C5.57881 93.1694 21.8006 94.8829 30.5941 99.8809C42.3452 106.56 53.1689 126.116 53.1689 126.116Z" fill="#FFB026"/>
<path d="M8.01917 77.9161L4.3584 94.3896C4.3584 94.3896 24.2969 95.983 34.2547 102.931C44.1819 109.858 52.5586 127.947 52.5586 127.947L68.422 123.066C68.422 123.066 51.2475 101.118 43.4067 85.2376C37.8629 74.0094 31.8142 55.3413 31.8142 55.3413L8.01917 77.9161Z" fill="#FF9915"/>
<path d="M74.5238 128.557C71.5992 127.244 68.4225 123.066 68.4225 123.066C68.4225 123.066 53.3721 104.94 45.8477 91.9489C38.2573 78.8437 29.9844 56.5615 29.9844 56.5615L32.4249 53.5108V48.6298C32.4249 48.6298 35.2404 41.6173 38.5262 38.2576C42.9965 33.6867 47.4731 33.8395 53.1693 30.936C59.151 27.887 72.0833 24.2246 72.0833 24.2246C72.0833 24.2246 64.457 55.0044 68.4225 74.8653C73.6802 101.198 98.929 136.488 98.929 136.488C98.929 136.488 91.4488 129.882 85.5061 128.557C81.3201 127.623 78.4367 130.313 74.5238 128.557Z" fill="#FFA81F"/>
<path d="M187.242 105.622C171.359 109.465 156.044 132.648 156.044 132.648C156.044 132.648 155.532 144.974 152.86 152.303C149.062 162.722 135.681 164.486 136.306 175.643C137.307 193.518 165.233 181.3 182.149 175.643C197.279 170.583 215.257 152.303 215.257 152.303C215.257 152.303 235.181 137.376 232.449 125.277C230.679 117.444 225.995 113.75 219.078 109.307C208.655 102.613 199.388 102.683 187.242 105.622Z" fill="#FFA81F"/>
</svg>
