<svg width="236" height="185" viewBox="0 0 236 185" fill="none" xmlns="http://www.w3.org/2000/svg">
<path d="M112.352 140.149C106.853 139.998 98.9287 135.878 98.9287 135.878C98.9287 135.878 68.7651 99.0163 65.9817 70.5946C64.2246 52.6521 72.083 24.835 72.083 24.835C72.083 24.835 77.1926 15.1314 82.4552 10.802C90.8974 3.8568 98.5179 4.66858 109.301 2.87031C123.872 0.440213 133.232 -2.14173 147.129 2.87031C158.829 7.09024 172.754 21.7843 172.754 21.7843C172.754 21.7843 156.352 20.7729 147.129 24.835C132.505 31.2755 127.881 42.1598 121.66 56.8037L121.503 57.1718C115.205 71.9966 115.472 81.952 116.012 98.0504C116.542 113.836 123.944 137.709 123.944 137.709C123.944 137.709 116.976 140.277 112.352 140.149Z" fill="#FFC03D"/>
<path d="M53.1689 126.116C53.1689 126.116 25.6254 154.973 17.1713 152.352C8.71711 149.731 1.25636 139.522 0.0876522 127.947C-0.754203 119.609 4.72411 115.539 5.57881 107.202C6.13775 101.751 5.57881 93.1694 5.57881 93.1694C5.57881 93.1694 21.8006 94.8829 30.5941 99.8809C42.3452 106.56 53.1689 126.116 53.1689 126.116Z" fill="#FFB026"/>
<path d="M8.01917 77.9161L4.3584 94.3896C4.3584 94.3896 24.2969 95.983 34.2547 102.931C44.1819 109.858 52.5586 127.947 52.5586 127.947L68.422 123.066C68.422 123.066 51.2475 101.118 43.4067 85.2376C37.8629 74.0094 31.8142 55.3413 31.8142 55.3413L8.01917 77.9161Z" fill="#FF9915"/>
<path d="M74.5238 128.557C71.5992 127.244 68.4225 123.066 68.4225 123.066C68.4225 123.066 53.3721 104.94 45.8477 91.9489C38.2573 78.8437 29.9844 56.5615 29.9844 56.5615L32.4249 53.5108V48.6298C32.4249 48.6298 35.2404 41.6173 38.5262 38.2576C42.9965 33.6867 47.4731 33.8395 53.1693 30.936C59.151 27.887 72.0833 24.2246 72.0833 24.2246C72.0833 24.2246 64.457 55.0044 68.4225 74.8653C73.6802 101.198 98.929 136.488 98.929 136.488C98.929 136.488 91.4488 129.882 85.5061 128.557C81.3201 127.623 78.4367 130.313 74.5238 128.557Z" fill="#FFA81F"/>
<path d="M148.95 21.0031C165.423 15.5121 167.928 16.0487 178.236 21.0031C183.425 23.4972 189.804 30.1305 189.828 30.1555C189.828 30.1555 202.28 32.944 208.131 38.0871C216.46 45.4079 219.105 64.2597 219.114 64.3225C219.023 64.2774 199.048 54.3485 186.168 57.0012C168.343 60.6726 162.484 74.5477 153.831 90.5578C151.474 94.9178 149.63 100.278 148.195 105.762C145.572 106.488 143.471 107.548 142.126 109.029C139.539 111.876 135.079 116.938 134.672 122.472C134.438 125.666 135.316 131.616 135.944 139.332C133.777 140.111 131.452 140.682 129.425 140.589C124.298 140.354 117.222 135.707 117.222 135.707C117.176 135.587 109.29 114.93 108.681 103.371C108.071 91.7789 111.122 69.8141 115.392 60.052C119.663 50.2899 132.476 26.4943 148.95 21.0031Z" fill="#FEA31A"/>
<path d="M183.668 55.0952C197.499 51.7381 219.539 61.0493 219.539 61.0493C219.539 61.0493 228.097 72.1897 232.277 82.1714C231.032 80.7293 229.697 79.4714 228.315 78.564C225.474 76.6973 221.754 74.4287 216.781 74.7573C209.439 75.2426 206.469 79.8128 202.646 78.1773C201.13 77.5289 199.896 75.5038 197.908 74.9273C193.97 73.7853 188.926 72.5521 177.491 78.8413C172.494 81.5899 167.25 84.8132 163.871 89.3228C162.277 91.4512 163.327 96.918 161.146 102.974C160.421 104.986 159.12 104.418 157.44 104.491C150.644 104.784 144.979 106.028 142.238 108.913C143.306 101.806 145.023 94.4458 147.796 88.8374C156.568 71.092 165.595 59.4823 183.668 55.0952Z" fill="#FEC244"/>
</svg>
