<svg width="242" height="246" viewBox="0 0 242 246" fill="none" xmlns="http://www.w3.org/2000/svg">
<path d="M10.3153 239.178C10.3153 239.178 3.07296 245.696 0.538166 243.886C-1.99663 242.075 5.24569 233.747 5.24569 233.747L10.3153 239.178Z" fill="#695E58"/>
<path d="M12.3523 239.722C11.447 240.265 10.1796 240.084 10.1796 240.084L4.20469 233.747C4.20469 233.747 4.02365 233.022 4.3857 232.298C4.74776 231.574 11.8091 224.332 11.8091 224.332C11.8091 224.332 12.8955 217.995 13.6197 216.727C14.3439 215.46 17.784 211.114 17.784 211.114L50.9178 178.343L67.032 194.095C67.032 194.095 31.3634 229.039 27.9233 230.488C24.4833 231.936 19.2325 233.022 19.2325 233.022C19.2325 233.022 13.2575 239.178 12.3523 239.722Z" fill="#313421"/>
<path d="M68.0781 196.449L47.7996 177.981L149.736 75.8638L168.204 94.8749L68.0781 196.449Z" fill="#D9D9D9"/>
<path d="M166.212 96.6854L147.382 78.0364L203.148 22.8135L218.538 11.0447L214.555 8.69091L195.362 22.8135L162.772 55.5851C162.772 55.5851 164.039 54.8609 162.772 58.1199C161.504 61.379 155.348 64.0949 155.348 64.0949C155.348 64.0949 152.27 64.638 153.176 61.379C154.081 58.1199 187.939 25.3483 187.939 25.3483C187.939 25.3483 211.477 0.181638 217.633 0.181152C223.789 0.180666 225.961 7.24244 225.961 7.24244C225.961 7.24244 229.039 5.06921 233.204 3.80233C237.368 2.53545 240.989 11.95 240.989 11.95C240.989 11.95 228.714 31.5843 219.624 43.2731C201.516 66.5598 166.212 96.6854 166.212 96.6854Z" fill="#252314" stroke="black" stroke-width="0.362117"/>
<path d="M84.2113 156.179C84.2113 156.049 84.2113 154.419 84.2049 151.989C84.2026 151.121 84.1856 150.997 84.1313 150.89C84.0207 150.673 83.734 150.567 83.3351 150.501C82.7474 150.404 82.2112 150.531 81.8129 150.741C81.2637 151.031 80.6939 151.734 79.6363 153.215C78.8762 154.279 77.8449 156.104 77.1794 157.382C75.7673 160.093 76.0104 160.786 76.1641 161.518C76.3031 162.179 77.293 162.207 78.0298 162.229C78.5353 162.243 79.51 161.917 80.9354 161.396C82.4526 160.841 83.9737 160.244 85.3874 159.954C86.5132 159.724 87.2689 159.843 87.6993 159.966C88.5017 160.195 88.728 161.081 88.8778 161.821C88.9664 162.258 88.856 162.792 88.6927 163.516C88.4576 164.558 87.9389 165.715 87.4141 166.722C87.0095 167.499 86.3515 168.147 85.5926 168.83C84.8157 169.366 83.5747 169.809 82.2559 170.123C81.7762 170.23 81.6811 170.231 81.5359 170.376" stroke="#252314" stroke-width="1.69163" stroke-linecap="round"/>
<path d="M85.9741 149.22C86.1993 149.344 86.7051 149.828 88.0444 151.808C89.213 153.537 91.2492 156.817 92.3457 158.577C93.4421 160.337 93.505 160.499 93.2522 160.14C92.3932 158.919 91.6717 157.57 91.3308 156.68C90.6708 154.956 90.3213 154.126 90.255 153.287C90.2066 152.674 91.1785 152.114 91.7027 151.961C92.009 151.872 92.3831 152.185 92.7113 152.42C93.3059 152.847 93.5322 153.923 93.7037 154.606C93.9086 155.423 94.5744 156.35 95.0822 156.804C95.3299 157.026 95.7897 156.928 96.185 156.86C96.5261 156.801 96.6434 156.456 96.7318 156.156C96.887 155.629 96.8383 154.934 96.8031 154.349C96.7787 153.944 96.1703 152.795 95.3813 151.212C94.908 150.263 94.91 148.985 95.0403 148.075C95.0784 147.809 95.3224 147.612 95.5627 147.427C96.1269 146.994 96.9813 147.099 97.4172 147.289C97.6878 147.407 97.9678 147.854 98.4625 148.556C99.2268 149.641 99.2424 151.501 99.2196 153.008C99.2094 153.682 98.9856 153.9 98.7969 154.084C98.4648 154.41 98.064 154.378 97.9289 154.354C97.5626 154.287 99.3909 153.76 100.07 153.335C100.514 153.058 100.506 152.253 100.477 151.756C100.453 151.361 101.682 151.5 102.223 151.3C102.394 151.237 102.301 150.713 102.065 149.719C101.643 147.945 100.714 146.73 100.262 146.122C99.2495 144.755 98.9658 144.635 98.9082 144.54C98.716 144.223 99.355 143.935 99.421 143.744C99.4864 143.556 99.336 143.351 99.3044 143.253C99.2976 143.232 99.4186 143.317 99.5317 143.329C100.9 143.464 102.603 141.201 103.261 141.211C103.504 141.215 103.677 141.349 103.821 141.517C104.394 142.187 104.427 143.816 104.792 145.028C105.027 145.81 105.702 146.445 106.109 146.748C106.276 146.872 106.581 146.83 106.885 146.794C107.433 146.728 107.466 145.423 107.27 143.906C107.184 143.239 106.66 142.32 106.186 141.322C105.217 139.285 104.338 137.839 104.095 137.332C103.896 136.916 105.208 138.145 105.825 139.286C106.206 139.99 106.577 141.02 106.91 142.066C107.569 144.139 107.828 145.465 108.021 145.927C108.443 146.937 109.269 147.791 109.817 148.38C109.921 148.492 110.033 148.586 109.384 147.232C108.735 145.879 107.324 143.071 106.546 141.465C105.622 139.559 105.444 138.615 105.288 137.622C105.226 137.227 105.269 137.045 105.353 136.913C105.517 136.654 105.912 136.595 106.341 136.554C107.293 136.461 108.963 137.588 110.112 138.515C110.605 138.913 110.581 139.473 110.551 140.836C110.53 141.803 109.552 142.455 108.6 142.917C108.325 143.051 108.005 143.079 107.963 143.141C107.48 143.867 109.757 143.372 109.925 143.304C110.094 143.236 110.269 142.696 110.59 141.693C111.032 140.311 111.067 138.836 110.916 137.281C110.698 135.028 110.099 133.557 110.199 133.417C110.503 132.991 110.893 134.588 111.212 135.556C111.945 137.776 112.314 138.465 112.874 138.936C113.138 139.157 113.481 139.15 113.777 139.139C114.698 139.106 115.289 137.897 115.621 137.05C115.726 136.782 115.771 136.44 115.803 135.496C115.835 134.551 115.826 133.006 115.779 132.057C115.716 130.796 115.474 130.363 115.285 130.147C114.935 129.745 113.733 129.792 113.023 129.878C111.809 130.026 112.818 133.406 113.213 134.252C113.552 134.977 114.351 135.411 114.807 135.691C115.241 135.959 116.406 135.896 117.128 135.802C117.549 135.747 118.264 135.006 119.158 133.836C119.297 133.564 119.34 133.352 119.362 132.886C119.385 132.421 119.387 131.709 119.389 130.975" stroke="#252314" stroke-width="1.69163" stroke-linecap="round"/>
<path d="M10 237.231C11.706 237.231 16.3331 237.703 31.6567 242.748C37.2792 244.599 43.7873 244.347 52.1265 243.875C60.0122 243.429 65.8699 240.775 69.5455 239.109C72.133 237.937 74.5783 235.698 79.8531 229.853C83.706 225.584 89.3521 218.15 92.7048 213.782C99.9843 204.299 104.022 195.932 106.517 193.672C109.257 191.189 112.783 191.11 119.852 191.321C125.024 191.474 129.652 192.845 133.082 192.75C138.748 192.595 143.534 186.323 148.649 178.82C151.461 174.693 151.261 168.665 150.625 164.188C150.164 160.938 144.612 157.516 140.126 154.547C137.006 152.483 132.918 153.238 129.601 153.74C126.18 154.257 123.545 157.827 119.959 162.72C117.177 166.515 116.735 171.556 116.669 177.396C116.617 181.924 121.5 185.548 124.424 187.697C127.624 190.05 132.826 190.384 134.666 191.939C138.367 195.067 138.399 202.867 138.258 216.298C138.226 219.404 134.729 220.533 131.72 222.049C126.83 224.515 121.754 214.107 120.89 213.323C116.18 209.049 132.289 224.309 133.424 224.729C141.667 227.778 151.248 209.369 152.541 208.364C154.544 206.807 145.808 216.094 138.041 224.387C125.008 238.304 122.455 243.964 122.137 244.395C121.51 245.243 129.342 235.258 139.583 224.097C143.219 220.135 143.843 219.776 144.487 219.535C147.797 218.298 152.745 221.684 158.566 222.947C162.223 223.435 168.875 224.239 172.864 224.656C176.854 225.073 177.979 225.079 179.138 225.084" stroke="#2B2D2C" stroke-width="2" stroke-linecap="round"/>
</svg>
