<svg width="241" height="236" viewBox="0 0 241 236" fill="none" xmlns="http://www.w3.org/2000/svg">
<path d="M124.322 220.439L38.4542 218.785L42.3134 148.079L30.0466 13.2822L85.316 15.2118C85.316 15.2118 102.038 26.4979 114.122 26.5138C127.24 26.5311 144.996 13.2822 144.996 13.2822H188.688L214.737 26.5138L188.688 58.6279L214.737 211.342L124.322 220.439Z" fill="#8F1F19"/>
<path d="M41.2186 170.134C41.2186 170.134 91.218 164.228 123.415 162.785C155.915 161.328 206.721 162.785 206.721 162.785L210.74 187.557C210.74 187.557 157.275 186.051 123.415 187.38C90.7007 188.664 39.8325 193.838 39.8325 193.838L41.2186 170.134Z" fill="#131620"/>
<path d="M41.4865 163.792C41.4865 163.792 91.0364 157.072 123.081 155.427C155.173 153.78 205.365 155.427 205.365 155.427L206.468 162.87C206.468 162.87 156.364 161.315 124.322 162.87C91.8017 164.448 41.073 171.096 41.073 171.096L41.4865 163.792Z" fill="#D9D9D9"/>
<path d="M39.5729 191.158C39.5729 191.158 91.0222 184.382 124.295 182.723C157.617 181.062 209.733 182.723 209.733 182.723L210.878 190.229C210.878 190.229 158.854 188.661 125.583 190.229C91.8168 191.82 39.1436 198.524 39.1436 198.524L39.5729 191.158Z" fill="#D9D9D9"/>
<path d="M186.483 134.434L236.79 96.9443L240.925 82.3344L235.825 65.5193L214.324 25.4111L181.521 67.0354L152.99 110.589L186.483 134.434Z" fill="#A82928"/>
<path d="M1.14475 86.5772C-6.98714 72.6265 30.8639 13.2822 30.8639 13.2822L63.916 59.5899L92.6631 108.044L58.9166 134.572C58.9166 134.572 9.27666 100.528 1.14475 86.5772Z" fill="#A82928"/>
<path d="M191.039 53.2666L240.787 88.6744C240.787 88.6744 239.004 93.1206 236.928 95.9794C234.333 99.5522 228.107 103.836 228.107 103.836L179.5 69.8627L191.039 53.2666Z" fill="#14141C"/>
<path d="M179.905 69.8467L228.107 103.698L221.905 107.833L176.559 74.4784L179.905 69.8467Z" fill="#E0DEE9"/>
<path d="M194.929 49.1177L240.698 82.1802V88.5334L191.169 53.526L194.929 49.1177Z" fill="#E0DEE9"/>
<path d="M59.6496 53.2524L9.37236 96.1483C9.37236 96.1483 12.7305 99.7085 15.3463 102.255C18.4061 105.234 23.9428 108.66 23.9428 108.66L70.5684 71.2409L59.6496 53.2524Z" fill="#14141C"/>
<path d="M70.1509 71.1704L23.7066 108.349L29.5269 113.07L73.325 76.1354L70.1509 71.1704Z" fill="#E0DEE9"/>
<path d="M55.7189 49.1177L4.41049 91.8662L9.34461 95.9795L59.2664 53.8166L55.7189 49.1177Z" fill="#E0DEE9"/>
<path d="M83.1144 66.0828C82.898 64.6612 83.8331 62.4716 83.8331 62.4716C83.8331 62.4716 83.9793 63.7203 84.3475 64.4126C85.9372 67.4022 95.9386 60.8563 95.9386 60.8563C95.9386 60.8563 83.7265 70.1053 83.1144 66.0828Z" fill="#D9D9D9"/>
<path d="M125.254 117.751L105.562 122.581L109.772 115.769L128.598 101.031L134.791 96.448L139.497 90.9985L142.965 95.2095L151.015 92.4848L149.405 102.021L154.607 103.26L140.859 112.796L145.69 120.599L125.254 117.751Z" fill="#111214" stroke="#EFE6E9" stroke-width="1.23852"/>
<path d="M95.6531 107.347L110.02 115.521L134.79 96.3241L137.515 84.3105L130.084 88.1499L123.891 78.6133L119.556 89.6361L112.497 85.0536L117.327 100.783L109.401 93.2278L107.914 97.9342L98.0063 96.5718L101.97 105.613L95.6531 107.347Z" fill="#901611" stroke="#EFE6E9" stroke-width="1.23852"/>
<path d="M117.866 103.404C115.326 107.545 111.278 112.002 110.385 113.342C109.491 114.682 110.385 115.799 110.385 115.799C110.385 115.799 122.221 103.85 123.673 103.404C125.124 102.957 119.765 115.017 121.328 115.017C122.891 115.017 125.384 111.088 126.799 107.87C127.533 106.203 128.139 103.404 128.139 103.404C128.139 103.404 130.373 103.627 130.261 102.622L128.586 101.505C128.586 101.505 128.702 100.394 128.921 99.7188C129.662 97.4298 133.164 95.2522 133.164 95.2522C133.164 95.2522 133.388 91.741 131.824 91.3439C130.795 91.0825 129.256 92.2372 129.256 92.2372C129.256 92.2372 129.552 91.2082 129.256 90.6739C128.836 89.9135 127.979 89.8012 127.134 90.0039C125.864 90.3087 126.522 92.0171 125.683 93.0189C124.626 94.2804 123.342 94.1623 122.11 95.2522C119.421 97.6291 119.743 100.345 117.866 103.404Z" fill="#DFEAE2" stroke="#EFE6E9" stroke-width="1.09789"/>
<path d="M131.734 115.413C131.182 115 131.734 95.4282 131.734 95.4282L132.424 114.311C132.424 114.311 133.633 112.519 134.766 112.932C135.899 113.346 132.286 115.827 131.734 115.413Z" fill="#D9D9D9"/>
<path d="M113.582 1C113.545 1 112.535 1.00624 110.802 1.14352C108.362 1.33669 106.258 5.7042 104.873 9.40326C103.774 12.3394 104.805 14.9028 105.231 15.7523C106.19 17.662 109.878 18.4292 113.641 18.7973C117.133 19.139 121.002 15.0069 123.267 12.7811C124.074 11.9888 123.998 10.5073 123.83 9.04518C123.457 5.81218 119.595 3.34813 118.021 2.23067C117.179 1.81441 116.285 1.5207 115.388 1.34017C114.945 1.26253 114.529 1.21327 114.099 1.16251" stroke="#2B2D2C" stroke-width="2" stroke-linecap="round"/>
<path d="M115.708 19.3408V31.1323" stroke="#2B2D2C" stroke-width="2" stroke-linecap="round"/>
<path d="M104.912 221.457C104.912 222.374 104.592 225.217 102.354 229.904C101.731 231.288 101.41 232.102 101.084 232.901C100.932 233.291 100.808 233.652 100.679 234.513" stroke="#2B2D2C" stroke-width="2" stroke-linecap="round"/>
<path d="M151.05 218.014C151.05 217.975 151.053 220.81 151.33 225.913C151.604 228.162 152.149 229.72 152.551 230.713C152.952 231.706 153.193 232.088 153.442 232.481" stroke="#2B2D2C" stroke-width="2" stroke-linecap="round"/>
</svg>
