<svg width="241" height="234" viewBox="0 0 241 234" fill="none" xmlns="http://www.w3.org/2000/svg">
<path d="M124.322 219.439L38.4544 217.785L42.3136 147.079L30.0469 12.2822L85.3162 14.2118C85.3162 14.2118 102.038 25.4979 114.122 25.5138C127.24 25.5311 144.996 12.2822 144.996 12.2822H188.688L214.737 25.5138L188.688 57.6279L214.737 210.342L124.322 219.439Z" fill="#8F1F19"/>
<path d="M41.2189 169.134C41.2189 169.134 91.2182 163.228 123.415 161.785C155.915 160.328 206.721 161.785 206.721 161.785L210.741 186.557C210.741 186.557 157.275 185.051 123.415 186.38C90.701 187.664 39.8328 192.838 39.8328 192.838L41.2189 169.134Z" fill="#131620"/>
<path d="M41.4867 162.792C41.4867 162.792 91.0366 156.072 123.081 154.427C155.173 152.78 205.365 154.427 205.365 154.427L206.468 161.87C206.468 161.87 156.364 160.315 124.322 161.87C91.8019 163.448 41.0732 170.096 41.0732 170.096L41.4867 162.792Z" fill="#D9D9D9"/>
<path d="M39.5731 190.158C39.5731 190.158 91.0225 183.382 124.296 181.723C157.617 180.062 209.734 181.723 209.734 181.723L210.879 189.229C210.879 189.229 158.854 187.661 125.584 189.229C91.8171 190.82 39.1438 197.524 39.1438 197.524L39.5731 190.158Z" fill="#D9D9D9"/>
<path d="M186.483 133.434L236.79 95.9443L240.925 81.3344L235.826 64.5193L214.324 24.4111L181.521 66.0354L152.99 109.589L186.483 133.434Z" fill="#A82928"/>
<path d="M1.145 85.5772C-6.9869 71.6265 30.8641 12.2822 30.8641 12.2822L63.9163 58.5899L92.6633 107.044L58.9168 133.572C58.9168 133.572 9.2769 99.5279 1.145 85.5772Z" fill="#A82928"/>
<path d="M191.04 52.2666L240.787 87.6744C240.787 87.6744 239.004 92.1206 236.928 94.9794C234.333 98.5522 228.107 102.836 228.107 102.836L179.5 68.8627L191.04 52.2666Z" fill="#14141C"/>
<path d="M179.906 68.8467L228.107 102.698L221.905 106.833L176.559 73.4784L179.906 68.8467Z" fill="#E0DEE9"/>
<path d="M194.929 48.1177L240.698 81.1802V87.5334L191.169 52.526L194.929 48.1177Z" fill="#E0DEE9"/>
<path d="M59.6498 52.2524L9.3726 95.1483C9.3726 95.1483 12.7308 98.7085 15.3465 101.255C18.4063 104.234 23.9431 107.66 23.9431 107.66L70.5686 70.2409L59.6498 52.2524Z" fill="#14141C"/>
<path d="M70.1511 70.1704L23.7068 107.349L29.5272 112.07L73.3252 75.1354L70.1511 70.1704Z" fill="#E0DEE9"/>
<path d="M55.7191 48.1177L4.41073 90.8662L9.34486 94.9795L59.2666 52.8166L55.7191 48.1177Z" fill="#E0DEE9"/>
<path d="M83.1146 65.0828C82.8983 63.6612 83.8334 61.4716 83.8334 61.4716C83.8334 61.4716 83.9796 62.7203 84.3478 63.4126C85.9374 66.4022 95.9388 59.8563 95.9388 59.8563C95.9388 59.8563 83.7268 69.1053 83.1146 65.0828Z" fill="#D9D9D9"/>
<path d="M125.254 116.751L105.562 121.581L109.773 114.769L128.598 100.031L134.791 95.448L139.497 89.9985L142.965 94.2095L151.015 91.4848L149.405 101.021L154.607 102.26L140.86 111.796L145.69 119.599L125.254 116.751Z" fill="#111214" stroke="#EFE6E9" stroke-width="1.23852"/>
<path d="M95.6533 106.347L110.02 114.521L134.79 95.3241L137.515 83.3105L130.084 87.1499L123.892 77.6133L119.557 88.6361L112.497 84.0536L117.327 99.7828L109.401 92.2278L107.915 96.9342L98.0065 95.5718L101.97 104.613L95.6533 106.347Z" fill="#901611" stroke="#EFE6E9" stroke-width="1.23852"/>
<path d="M117.866 102.404C115.327 106.545 111.278 111.002 110.385 112.342C109.492 113.682 110.385 114.799 110.385 114.799C110.385 114.799 122.221 102.85 123.673 102.404C125.125 101.957 119.765 114.017 121.328 114.017C122.891 114.017 125.384 110.088 126.8 106.87C127.533 105.203 128.14 102.404 128.14 102.404C128.14 102.404 130.373 102.627 130.261 101.622L128.586 100.505C128.586 100.505 128.703 99.3942 128.921 98.7188C129.663 96.4298 133.165 94.2522 133.165 94.2522C133.165 94.2522 133.389 90.741 131.825 90.3439C130.795 90.0825 129.256 91.2372 129.256 91.2372C129.256 91.2372 129.552 90.2082 129.256 89.6739C128.836 88.9135 127.98 88.8012 127.135 89.0039C125.864 89.3087 126.522 91.0171 125.683 92.0189C124.626 93.2804 123.343 93.1623 122.11 94.2522C119.421 96.6291 119.743 99.3445 117.866 102.404Z" fill="#DFEAE2" stroke="#EFE6E9" stroke-width="1.09789"/>
<path d="M131.734 114.413C131.182 114 131.734 94.4282 131.734 94.4282L132.424 113.311C132.424 113.311 133.634 111.519 134.767 111.932C135.9 112.346 132.286 114.827 131.734 114.413Z" fill="#D9D9D9"/>
</svg>
